
            <svg xmlns="http://www.w3.org/2000/svg">
                <filter id="grayscale">
                    <feColorMatrix type="saturate" values="0"/>
                </filter>
                <g filter="url(#grayscale)">
                    <svg xmlns="http://www.w3.org/2000/svg" viewBox="19.999999999999986 145.66691228503595 534.9911878549713 283.66617542992816"> <g transform="rotate(0 166.03897241720767 287.5)"><svg xmlns="http://www.w3.org/2000/svg" id="Layer_2" viewBox="0.0061109960079193115 0 130.00062561035156 122.80999755859375" height="143.66617542992813" width="152.07794483441538" y="215.66691228503595" x="89.99999999999999" preserveAspectRatio="xMinYMin" style="overflow: visible;"><path d="M129.88,98.81L65.35,37.54c-.18-.17-.46-.17-.64,0L.15,98.81c-.25,.24-.16,.66,.16,.78l64.72,23.22,24.52-8.78-1.5-2.97-1.47-2.83-4.8-9.42c-.12-.23,.18-.45,.36-.27l8.62,8.19,2.6,2.46,2.63,2.52,9.97-3.57-1.42-2.83-1.53-2.97-9.8-19.18c-.12-.23,.18-.45,.36-.27l17.45,16.57,2.77,2.63,2.46,2.35,13.45-4.84c.33-.12,.41-.54,.16-.78ZM61.94,62.64l-20.92,24.31c-.17,.2,.07,.48,.29,.35l17.97-10.34-1.05,5.55-12.44,11.83c-.19,.18,.02,.48,.25,.38l10.8-4.74-4.02,21.57-41.17-14.75,53.37-50.65-3.09,16.48Z" style="fill: #f2cc8f; fill-opacity: 1;"></path><path d="M34.82,57.02c-.21-1.44-.32-2.91-.32-4.41,0-16.87,13.67-30.54,30.54-30.54s30.54,13.67,30.54,30.54c0,1.5-.11,2.99-.32,4.42l17.87,16.96c2.92-6.54,4.54-13.77,4.54-21.39C117.65,23.55,94.1,0,65.03,0S12.4,23.55,12.4,52.62c0,7.62,1.61,14.85,4.54,21.39l17.88-16.98Z" style="fill: #e07a5e; fill-opacity: 1;"></path></svg></g> <g transform="rotate(0 350.0661771738189 314.9600768504195)"><svg xmlns="http://www.w3.org/2000/svg" y="306.9500766215377" viewBox="0.8199999928474426 4.230000019073486 158.50999450683594 16.020000457763672" x="270.81117992040095" height="16.020000457763672" width="158.50999450683594" style="overflow: visible;"><g fill="#f2cc8f" fill-opacity="1" style=""><path d="M4.47 20.25Q2.69 20.25 1.76 19.24Q0.82 18.23 0.82 16.34L0.82 16.34L0.82 4.45L3.27 4.45L3.27 16.51Q3.27 17.31 3.59 17.67Q3.92 18.03 4.52 18.03L4.52 18.03Q5.12 18.03 5.44 17.67Q5.76 17.31 5.76 16.51L5.76 16.51L5.76 4.45L8.12 4.45L8.12 16.34Q8.12 18.23 7.19 19.24Q6.25 20.25 4.47 20.25L4.47 20.25ZM16.54 20.03L16.54 4.45L18.98 4.45L18.98 20.03L16.54 20.03ZM40.91 20.25Q39.13 20.25 38.21 19.24Q37.30 18.23 37.30 16.34L37.30 16.34L37.30 15.45L39.61 15.45L39.61 16.51Q39.61 18.03 40.88 18.03L40.88 18.03Q41.51 18.03 41.83 17.66Q42.15 17.29 42.15 16.47L42.15 16.47Q42.15 15.49 41.71 14.74Q41.26 14.00 40.06 12.95L40.06 12.95Q38.55 11.62 37.95 10.54Q37.34 9.46 37.34 8.10L37.34 8.10Q37.34 6.25 38.28 5.24Q39.21 4.23 40.99 4.23L40.99 4.23Q42.75 4.23 43.65 5.24Q44.56 6.25 44.56 8.15L44.56 8.15L44.56 8.79L42.24 8.79L42.24 7.99Q42.24 7.19 41.93 6.82Q41.62 6.45 41.02 6.45L41.02 6.45Q39.79 6.45 39.79 7.95L39.79 7.95Q39.79 8.79 40.25 9.53Q40.71 10.26 41.91 11.31L41.91 11.31Q43.44 12.64 44.02 13.73Q44.60 14.82 44.60 16.29L44.60 16.29Q44.60 18.21 43.65 19.23Q42.71 20.25 40.91 20.25L40.91 20.25ZM56.22 20.25Q54.41 20.25 53.46 19.23Q52.50 18.21 52.50 16.34L52.50 16.34L52.50 8.15Q52.50 6.28 53.46 5.25Q54.41 4.23 56.22 4.23L56.22 4.23Q58.02 4.23 58.98 5.25Q59.93 6.28 59.93 8.15L59.93 8.15L59.93 16.34Q59.93 18.21 58.98 19.23Q58.02 20.25 56.22 20.25L56.22 20.25ZM56.22 18.03Q57.49 18.03 57.49 16.49L57.49 16.49L57.49 7.99Q57.49 6.45 56.22 6.45L56.22 6.45Q54.95 6.45 54.95 7.99L54.95 7.99L54.95 16.49Q54.95 18.03 56.22 18.03L56.22 18.03ZM81.68 20.25Q79.90 20.25 78.98 19.24Q78.07 18.23 78.07 16.34L78.07 16.34L78.07 15.45L80.39 15.45L80.39 16.51Q80.39 18.03 81.66 18.03L81.66 18.03Q82.28 18.03 82.60 17.66Q82.92 17.29 82.92 16.47L82.92 16.47Q82.92 15.49 82.48 14.74Q82.03 14.00 80.83 12.95L80.83 12.95Q79.32 11.62 78.72 10.54Q78.12 9.46 78.12 8.10L78.12 8.10Q78.12 6.25 79.05 5.24Q79.99 4.23 81.77 4.23L81.77 4.23Q83.52 4.23 84.43 5.24Q85.33 6.25 85.33 8.15L85.33 8.15L85.33 8.79L83.01 8.79L83.01 7.99Q83.01 7.19 82.70 6.82Q82.39 6.45 81.79 6.45L81.79 6.45Q80.56 6.45 80.56 7.95L80.56 7.95Q80.56 8.79 81.02 9.53Q81.48 10.26 82.68 11.31L82.68 11.31Q84.21 12.64 84.79 13.73Q85.37 14.82 85.37 16.29L85.37 16.29Q85.37 18.21 84.43 19.23Q83.48 20.25 81.68 20.25L81.68 20.25ZM93.45 20.03L93.45 4.45L95.90 4.45L95.90 20.03L93.45 20.03ZM104.40 20.03L104.40 4.45L107.89 4.45L109.45 15.60L109.50 15.60L111.06 4.45L114.55 4.45L114.55 20.03L112.23 20.03L112.23 8.23L112.19 8.23L110.41 20.03L108.36 20.03L106.58 8.23L106.54 8.23L106.54 20.03L104.40 20.03ZM123.05 20.03L123.05 4.45L126.66 4.45Q128.48 4.45 129.39 5.43Q130.31 6.41 130.31 8.30L130.31 8.30L130.31 9.84Q130.31 11.73 129.39 12.71Q128.48 13.69 126.66 13.69L126.66 13.69L125.50 13.69L125.50 20.03L123.05 20.03ZM125.50 11.46L126.66 11.46Q127.26 11.46 127.56 11.13Q127.86 10.79 127.86 9.99L127.86 9.99L127.86 8.15Q127.86 7.34 127.56 7.01Q127.26 6.68 126.66 6.68L126.66 6.68L125.50 6.68L125.50 11.46ZM138.32 20.03L138.32 4.45L140.77 4.45L140.77 17.80L144.79 17.80L144.79 20.03L138.32 20.03ZM152.65 20.03L152.65 4.45L159.33 4.45L159.33 6.68L155.10 6.68L155.10 10.79L158.46 10.79L158.46 13.02L155.10 13.02L155.10 17.80L159.33 17.80L159.33 20.03L152.65 20.03Z" transform="translate(0, 0)"></path></g></svg></g> <g transform="rotate(0 377.9011838876861 273.57533522589927)"><svg xmlns="http://www.w3.org/2000/svg" y="252.02533598883875" viewBox="-0.550000011920929 16.5 214.1800079345703 43.099998474121094" x="270.81117992040095" height="43.099998474121094" width="214.1800079345703" style="overflow: visible;"><g fill="#f5f2df" fill-opacity="1" style=""><path d="M27.89 59.60L18.04 59.60L-0.55 16.50L10.22 16.50L26.47 54.67L20.13 54.67L36.63 16.50L46.54 16.50L27.89 59.60ZM79.79 59.60L69.82 59.60L69.82 16.50L79.79 16.50L79.79 59.60ZM129.29 59.60L109.71 59.60L109.71 16.50L129.29 16.50Q136.31 16.50 141.66 19.18Q147.02 21.86 150.04 26.66Q153.05 31.46 153.05 38.05L153.05 38.05Q153.05 44.57 150.04 49.41Q147.02 54.24 141.66 56.92Q136.31 59.60 129.29 59.60L129.29 59.60ZM119.68 24.69L119.68 51.41L128.80 51.41Q133.11 51.41 136.28 49.78Q139.45 48.14 141.20 45.13Q142.96 42.11 142.96 38.05L142.96 38.05Q142.96 33.92 141.20 30.94Q139.45 27.95 136.28 26.32Q133.11 24.69 128.80 24.69L128.80 24.69L119.68 24.69ZM189.44 41.62L189.44 33.86L210.19 33.86L210.19 41.62L189.44 41.62ZM190.18 24.50L190.18 51.59L213.63 51.59L213.63 59.60L180.27 59.60L180.27 16.50L212.83 16.50L212.83 24.50L190.18 24.50Z" transform="translate(0, 0)"></path></g></svg></g></svg>
                </g>
            </svg>
        