
            <svg xmlns="http://www.w3.org/2000/svg">
                <filter id="grayscale">
                    <feColorMatrix type="saturate" values="0"/>
                </filter>
                <g filter="url(#grayscale)">
                    <svg xmlns="http://www.w3.org/2000/svg" viewBox="-22.873296337890622 -22 620.7200012207031 566.4600067138672"> <g transform="rotate(0 287.49133129882813 208.95914533944816)"><svg xmlns="http://www.w3.org/2000/svg" id="Layer_2" viewBox="0.0061109960079193115 0 130.00062561035156 122.80999755859375" height="321.9182906788963" width="340.76666259765625" y="48" x="117.108" preserveAspectRatio="xMinYMin" style="overflow: visible;"><path d="M129.88,98.81L65.35,37.54c-.18-.17-.46-.17-.64,0L.15,98.81c-.25,.24-.16,.66,.16,.78l64.72,23.22,24.52-8.78-1.5-2.97-1.47-2.83-4.8-9.42c-.12-.23,.18-.45,.36-.27l8.62,8.19,2.6,2.46,2.63,2.52,9.97-3.57-1.42-2.83-1.53-2.97-9.8-19.18c-.12-.23,.18-.45,.36-.27l17.45,16.57,2.77,2.63,2.46,2.35,13.45-4.84c.33-.12,.41-.54,.16-.78ZM61.94,62.64l-20.92,24.31c-.17,.2,.07,.48,.29,.35l17.97-10.34-1.05,5.55-12.44,11.83c-.19,.18,.02,.48,.25,.38l10.8-4.74-4.02,21.57-41.17-14.75,53.37-50.65-3.09,16.48Z" style="fill: #78bbe6; fill-opacity: 1;"></path><path d="M34.82,57.02c-.21-1.44-.32-2.91-.32-4.41,0-16.87,13.67-30.54,30.54-30.54s30.54,13.67,30.54,30.54c0,1.5-.11,2.99-.32,4.42l17.87,16.96c2.92-6.54,4.54-13.77,4.54-21.39C117.65,23.55,94.1,0,65.03,0S12.4,23.55,12.4,52.62c0,7.62,1.61,14.85,4.54,21.39l17.88-16.98Z" style="fill: #ff895d; fill-opacity: 1;"></path></svg></g> <g transform="rotate(0 287.48670427246094 432.7300033569336)"><svg y="391" viewBox="-1.6699999570846558 31.950000762939453 480.7200012207031 83.46000671386719" x="47.12670366210938" height="83.46000671386719" width="480.7200012207031" style="overflow: visible;"><g fill="#ffffff" fill-opacity="1" style=""><path d="M57.23 115.41L33.98 115.41L-1.67 31.95L23.85 31.95L53.89 104.20L38.87 104.20L69.63 31.95L93.00 31.95L57.23 115.41ZM179.91 115.41L156.31 115.41L156.31 31.95L179.91 31.95L179.91 115.41ZM294.61 115.41L255.14 115.41L255.14 31.95L294.61 31.95Q308.44 31.95 318.93 37.08Q329.42 42.21 335.32 51.51Q341.22 60.81 341.22 73.68L341.22 73.68Q341.22 86.44 335.32 95.80Q329.42 105.16 318.93 110.28Q308.44 115.41 294.61 115.41L294.61 115.41ZM278.75 50.79L278.75 96.57L293.65 96.57Q300.81 96.57 306.11 93.89Q311.42 91.21 314.40 86.02Q317.38 80.84 317.38 73.68L317.38 73.68Q317.38 66.41 314.40 61.28Q311.42 56.16 306.11 53.47Q300.81 50.79 293.65 50.79L293.65 50.79L278.75 50.79ZM433.74 81.91L433.74 64.26L472.49 64.26L472.49 81.91L433.74 81.91ZM435.41 50.19L435.41 97.17L479.05 97.17L479.05 115.41L412.04 115.41L412.04 31.95L477.50 31.95L477.50 50.19L435.41 50.19Z" transform="translate(0, 0)"></path></g></svg></g></svg>
                </g>
            </svg>
        